<svg xmlns="http://www.w3.org/2000/svg" xmlns:xlink="http://www.w3.org/1999/xlink" viewBox="0 0 175.34 32.87"><defs><style>.cls-1{fill:#003768;}.cls-2,.cls-3{stroke:#00285f;stroke-miterlimit:10;stroke-width:0.5px;}.cls-2{fill:url(#linear-gradient);}.cls-3{fill:url(#linear-gradient-2);}</style><linearGradient id="linear-gradient" x1="169.27" y1="29.71" x2="175.09" y2="29.71" gradientUnits="userSpaceOnUse"><stop offset="0" stop-color="#66efc5"/><stop offset="0.24" stop-color="#63efce"/><stop offset="0.65" stop-color="#5ceee7"/><stop offset="0.96" stop-color="#5ef"/></linearGradient><linearGradient id="linear-gradient-2" x1="0.25" y1="19.31" x2="44.91" y2="19.31" xlink:href="#linear-gradient"/></defs><g id="Layer_2" data-name="Layer 2"><g id="Layer_1-2" data-name="Layer 1"><path class="cls-1" d="M48.55,19.67a14.18,14.18,0,0,1,.93-5.4,9.49,9.49,0,0,1,2.65-3.69,9.81,9.81,0,0,1,4-2.1,19.54,19.54,0,0,1,5.21-.66,20.2,20.2,0,0,1,4.78.54A12.28,12.28,0,0,1,70,10a9.31,9.31,0,0,1,2.68,3,11.85,11.85,0,0,1,1.4,4.35H68.57a4.37,4.37,0,0,0-2.37-3.11,11.44,11.44,0,0,0-4.82-.85,14.34,14.34,0,0,0-3.11.31,5.26,5.26,0,0,0-2.33,1.05,4.59,4.59,0,0,0-1.48,1.94,7.49,7.49,0,0,0-.55,3,7.17,7.17,0,0,0,.55,3,4.59,4.59,0,0,0,1.48,1.94,5.26,5.26,0,0,0,2.33,1.05,14.34,14.34,0,0,0,3.11.31A11.39,11.39,0,0,0,66.2,25,4.3,4.3,0,0,0,68.57,22h5.52a11.64,11.64,0,0,1-1.4,4.31,8.9,8.9,0,0,1-2.68,3A11.5,11.5,0,0,1,66.16,31a20.2,20.2,0,0,1-4.78.54,19.54,19.54,0,0,1-5.21-.66,9.81,9.81,0,0,1-4-2.1A9.49,9.49,0,0,1,49.48,25,13.88,13.88,0,0,1,48.55,19.67Z"/><path class="cls-1" d="M81.4,0V31.11H76V0Z"/><path class="cls-1" d="M96.22,31.49A19.54,19.54,0,0,1,91,30.83,9.85,9.85,0,0,1,87,28.73,9.57,9.57,0,0,1,84.32,25a13.88,13.88,0,0,1-.93-5.37,14.18,14.18,0,0,1,.93-5.4A9.57,9.57,0,0,1,87,10.58,9.85,9.85,0,0,1,91,8.48a19.54,19.54,0,0,1,5.21-.66,20.17,20.17,0,0,1,5.25.66,10,10,0,0,1,4.08,2.1,9.51,9.51,0,0,1,2.61,3.69,14.18,14.18,0,0,1,.93,5.4,13.88,13.88,0,0,1-.93,5.37,9.51,9.51,0,0,1-2.61,3.69,10,10,0,0,1-4.08,2.1A20.17,20.17,0,0,1,96.22,31.49Zm0-5.56a15.62,15.62,0,0,0,3.26-.31,5.25,5.25,0,0,0,2.34-1.05,4.69,4.69,0,0,0,1.36-1.94,8,8,0,0,0,.46-3,8.39,8.39,0,0,0-.46-3,4.69,4.69,0,0,0-1.36-1.94,5.25,5.25,0,0,0-2.34-1.05,17.35,17.35,0,0,0-6.53,0,5.26,5.26,0,0,0-2.33,1.05,4.43,4.43,0,0,0-1.4,1.94,8.37,8.37,0,0,0-.47,3,8,8,0,0,0,.47,3,4.43,4.43,0,0,0,1.4,1.94A5.26,5.26,0,0,0,93,25.62,15.72,15.72,0,0,0,96.22,25.93Z"/><path class="cls-1" d="M120.68,31.49A13.51,13.51,0,0,1,117.1,31a7.31,7.31,0,0,1-3-1.67,8.69,8.69,0,0,1-2.18-3.27,14.9,14.9,0,0,1-.86-5.21l.08-12.68h5.4V18.35c0,4.94,1.91,7.39,5.76,7.39a24.56,24.56,0,0,0,4.08-.27,7.43,7.43,0,0,0,2.61-.82,4.34,4.34,0,0,0,1.59-1.44,7.35,7.35,0,0,0,.93-2.17V8.2h5.37V31.11h-5.37l0-2.45a4.79,4.79,0,0,1-1.25,1.51,5.5,5.5,0,0,1-1.71.86,9.42,9.42,0,0,1-2.1.43c-.74,0-1.52.07-2.33.07h-1.67C121.8,31.49,121.26,31.49,120.68,31.49Z"/><path class="cls-1" d="M152.75,7.85a15.65,15.65,0,0,1,2.49.32,9.43,9.43,0,0,1,2.18.81,5.32,5.32,0,0,1,1.71,1.52V0h5.4V31.11h-5.4V28.5a6,6,0,0,1-1.71,1.56,8.39,8.39,0,0,1-2.18.89,12.64,12.64,0,0,1-2.49.47c-.89,0-1.86.07-2.87.07a13.47,13.47,0,0,1-4.2-.62,9.22,9.22,0,0,1-3.54-2,9.51,9.51,0,0,1-2.41-3.65,15.25,15.25,0,0,1-.9-5.53,15.46,15.46,0,0,1,.9-5.56,9.51,9.51,0,0,1,2.41-3.65,9.22,9.22,0,0,1,3.54-2,13.47,13.47,0,0,1,4.2-.62C150.89,7.82,151.86,7.82,152.75,7.85Zm4.47,16.65c1.29-1,1.91-2.57,1.91-4.83s-.62-3.88-1.91-4.86a9,9,0,0,0-5.56-1.43,8.85,8.85,0,0,0-5.52,1.43c-1.28,1-1.9,2.57-1.9,4.86s.62,3.85,1.9,4.83a9,9,0,0,0,5.52,1.43A9.12,9.12,0,0,0,157.22,24.5Z"/><circle class="cls-2" cx="172.18" cy="29.71" r="2.91"/><polygon class="cls-3" points="44.91 12.42 44.91 7.18 24.38 7.18 24.15 7.18 0.25 7.18 0.25 12.42 9.78 12.42 9.78 31.45 14.84 31.45 14.84 12.42 24.15 12.42 24.15 31.45 29.21 31.45 29.21 23.86 43.25 23.86 43.25 18.59 29.21 18.59 29.21 12.42 44.91 12.42"/></g></g></svg>